<svg version="1.1" viewBox="0.0 0.0 907.0866141732283 1050.708661417323" fill="none" stroke="none" stroke-linecap="square" stroke-miterlimit="10" xmlns:xlink="http://www.w3.org/1999/xlink" xmlns="http://www.w3.org/2000/svg"><clipPath id="p.0"><path d="m0 0l907.0866 0l0 1050.7086l-907.0866 0l0 -1050.7086z" clip-rule="nonzero"/></clipPath><g clip-path="url(#p.0)"><path fill="#ffffff" d="m0 0l907.0866 0l0 1050.7086l-907.0866 0z" fill-rule="evenodd"/><path fill="#fffff1" d="m-43.681675 5.4702783l1028.4409 0l0 1016.18896l-1028.4409 0z" fill-rule="evenodd"/><path fill="#743271" d="m-24.451199 513.5805l989.95276 0l0 54.740112l-989.95276 0z" fill-rule="evenodd"/><path fill="#743271" d="m-24.451199 608.9002l989.95276 0l0 54.740173l-989.95276 0z" fill-rule="evenodd"/><path fill="#743271" d="m-24.451199 704.2199l989.95276 0l0 54.740173l-989.95276 0z" fill-rule="evenodd"/><path fill="#743271" d="m-8.451199 799.5397l989.9381 0l0 54.73523l-989.9381 0z" fill-rule="evenodd"/><path fill="#743271" d="m-8.451444 894.9334l989.95276 0l0 54.70868l-989.95276 0z" fill-rule="evenodd"/><path fill="#fffff1" d="m816.534 419.4184l106.704895 80.47705c-11.786255 -8.889252 -81.19122 29.042542 -155.02032 84.72308c-73.82904 55.68048 -124.12463 108.02466 -112.33832 116.91388l-106.704956 -80.47705l0 0c-11.786316 -8.889221 38.509277 -61.2334 112.33838 -116.91388c73.82904 -55.680542 143.23401 -93.612335 155.02032 -84.72308z" fill-rule="evenodd"/><path fill="#fffff1" d="m127.8728 417.96216l-107.00516 80.69867c11.819462 -8.913727 81.6586 29.304749 155.99008 85.36334c74.33147 56.058655 125.00748 108.729126 113.18802 117.64282l107.00516 -80.69861l0 0c11.819458 -8.913757 -38.856537 -61.58423 -113.18802 -117.64285c-74.33148 -56.058594 -144.17061 -94.2771 -155.99008 -85.36337z" fill-rule="evenodd"/><path fill="#fffff1" d="m287.56177 513.5805l375.45343 0l0 150.06439l-375.45343 0z" fill-rule="evenodd"/><path fill="#f49231" d="m531.2127 652.9973l-398.8306 -256.26065l0 -69.18622l398.8306 -256.26062z" fill-rule="evenodd"/><path fill="#fffff1" d="m460.67755 639.68756l51.338562 0l0 309.95276l-51.338562 0z" fill-rule="evenodd"/><path fill="#000000" fill-opacity="0.0" d="m484.92035 1051.4384l-0.34646606 -417.1969" fill-rule="evenodd"/><path stroke="#0f3149" stroke-width="8.0" stroke-linejoin="round" stroke-linecap="butt" d="m484.92035 1051.4384l-0.34646606 -417.1969" fill-rule="evenodd"/><path fill="#f49231" d="m79.76965 349.0074l0 0c0 -55.12967 44.855568 -99.821106 100.18771 -99.821106l0 0c26.571442 0 52.05458 10.516815 70.843414 29.236908c18.788849 18.720093 29.3443 44.109985 29.3443 70.5842l0 0c0 55.12967 -44.85556 99.821106 -100.18771 99.821106l0 0c-55.332146 0 -100.18771 -44.691437 -100.18771 -99.821106z" fill-rule="evenodd"/><path stroke="#fffff1" stroke-width="8.0" stroke-linejoin="round" stroke-linecap="butt" d="m79.76965 349.0074l0 0c0 -55.12967 44.855568 -99.821106 100.18771 -99.821106l0 0c26.571442 0 52.05458 10.516815 70.843414 29.236908c18.788849 18.720093 29.3443 44.109985 29.3443 70.5842l0 0c0 55.12967 -44.85556 99.821106 -100.18771 99.821106l0 0c-55.332146 0 -100.18771 -44.691437 -100.18771 -99.821106z" fill-rule="evenodd"/><path fill="#fffff1" d="m578.35736 244.65944l-301.19882 86.32823l-19.36618 -47.743073l276.565 -147.0576z" fill-rule="evenodd"/><path fill="#fffff1" d="m604.0945 442.2113l-327.15753 -57.01645l2.1575928 -37.778137l331.55115 -19.914062z" fill-rule="evenodd"/><path fill="#fffff1" d="m618.23615 671.7983l-373.7763 -241.01633l10.859726 -19.920135l405.68823 182.47974z" fill-rule="evenodd"/><path fill="#743271" d="m538.1381 311.4251l0 0c6.5230713 -16.699005 25.397583 -24.96939 42.15747 -18.472443l0 0c8.048401 3.1199646 14.522766 9.2977295 17.99884 17.174255c3.4760742 7.876526 3.6690674 16.80661 0.5366211 24.825745l0 0c-6.5230713 16.699005 -25.397583 24.969421 -42.15747 18.472443l0 0c-16.759888 -6.4969482 -25.058533 -25.300995 -18.535461 -42.0z" fill-rule="evenodd"/><path stroke="#fffff1" stroke-width="3.0" stroke-linejoin="round" stroke-linecap="butt" d="m538.1381 311.4251l0 0c6.5230713 -16.699005 25.397583 -24.96939 42.15747 -18.472443l0 0c8.048401 3.1199646 14.522766 9.2977295 17.99884 17.174255c3.4760742 7.876526 3.6690674 16.80661 0.5366211 24.825745l0 0c-6.5230713 16.699005 -25.397583 24.969421 -42.15747 18.472443l0 0c-16.759888 -6.4969482 -25.058533 -25.300995 -18.535461 -42.0z" fill-rule="evenodd"/><path fill="#743271" d="m598.61115 335.05676l0 0c6.5230713 -16.699005 25.397644 -24.96939 42.15753 -18.472443l0 0c8.04834 3.1199646 14.522705 9.297699 17.99878 17.174225c3.4760742 7.8765564 3.6691284 16.80664 0.5366211 24.825775l0 0c-6.5230713 16.699005 -25.397583 24.96939 -42.15747 18.472443l0 0c-16.759888 -6.4969482 -25.058472 -25.300995 -18.535461 -42.0z" fill-rule="evenodd"/><path stroke="#fffff1" stroke-width="3.0" stroke-linejoin="round" stroke-linecap="butt" d="m598.61115 335.05676l0 0c6.5230713 -16.699005 25.397644 -24.96939 42.15753 -18.472443l0 0c8.04834 3.1199646 14.522705 9.297699 17.99878 17.174225c3.4760742 7.8765564 3.6691284 16.80664 0.5366211 24.825775l0 0c-6.5230713 16.699005 -25.397583 24.96939 -42.15747 18.472443l0 0c-16.759888 -6.4969482 -25.058472 -25.300995 -18.535461 -42.0z" fill-rule="evenodd"/><path fill="#743271" d="m545.22 368.8785l0 0c6.5230103 -16.699005 25.397583 -24.96939 42.15747 -18.472443l0 0c8.04834 3.119934 14.522705 9.297699 17.99878 17.174225c3.4760742 7.876526 3.6691284 16.80661 0.5366211 24.825775l0 0c-6.5230103 16.699005 -25.397583 24.96939 -42.15747 18.472443l0 0c-16.759888 -6.4969788 -25.058472 -25.300995 -18.5354 -42.0z" fill-rule="evenodd"/><path stroke="#fffff1" stroke-width="3.0" stroke-linejoin="round" stroke-linecap="butt" d="m545.22 368.8785l0 0c6.5230103 -16.699005 25.397583 -24.96939 42.15747 -18.472443l0 0c8.04834 3.119934 14.522705 9.297699 17.99878 17.174225c3.4760742 7.876526 3.6691284 16.80661 0.5366211 24.825775l0 0c-6.5230103 16.699005 -25.397583 24.96939 -42.15747 18.472443l0 0c-16.759888 -6.4969788 -25.058472 -25.300995 -18.5354 -42.0z" fill-rule="evenodd"/><path fill="#743271" d="m597.0396 404.16794l0 0c6.5230103 -16.699005 25.397583 -24.96939 42.15747 -18.472443l0 0c8.048401 3.1199646 14.522766 9.297699 17.99884 17.174225c3.4760742 7.876526 3.6690674 16.80664 0.5366211 24.825775l0 0c-6.5230713 16.699005 -25.397644 24.96939 -42.15753 18.472443l0 0c-16.759888 -6.4969482 -25.058472 -25.300995 -18.5354 -42.0z" fill-rule="evenodd"/><path stroke="#fffff1" stroke-width="3.0" stroke-linejoin="round" stroke-linecap="butt" d="m597.0396 404.16794l0 0c6.5230103 -16.699005 25.397583 -24.96939 42.15747 -18.472443l0 0c8.048401 3.1199646 14.522766 9.297699 17.99884 17.174225c3.4760742 7.876526 3.6690674 16.80664 0.5366211 24.825775l0 0c-6.5230713 16.699005 -25.397644 24.96939 -42.15753 18.472443l0 0c-16.759888 -6.4969482 -25.058472 -25.300995 -18.5354 -42.0z" fill-rule="evenodd"/><path fill="#743271" d="m484.74692 345.24686l0 0c6.523041 -16.699005 25.397583 -24.96939 42.15744 -18.472443l0 0c8.048401 3.119934 14.522766 9.297699 17.99884 17.174225c3.4760742 7.876526 3.6690674 16.80664 0.5366211 24.825775l0 0c-6.5230713 16.699005 -25.397583 24.96939 -42.15747 18.472443l0 0c-16.759888 -6.4969482 -25.058502 -25.300995 -18.53543 -42.0z" fill-rule="evenodd"/><path stroke="#fffff1" stroke-width="3.0" stroke-linejoin="round" stroke-linecap="butt" d="m484.74692 345.24686l0 0c6.523041 -16.699005 25.397583 -24.96939 42.15744 -18.472443l0 0c8.048401 3.119934 14.522766 9.297699 17.99884 17.174225c3.4760742 7.876526 3.6690674 16.80664 0.5366211 24.825775l0 0c-6.5230713 16.699005 -25.397583 24.96939 -42.15747 18.472443l0 0c-16.759888 -6.4969482 -25.058502 -25.300995 -18.53543 -42.0z" fill-rule="evenodd"/><path fill="#743271" d="m498.50317 412.61026l0 0c6.5230713 -16.699005 25.397583 -24.96939 42.15747 -18.472443l0 0c8.048401 3.1199646 14.522766 9.2977295 17.99884 17.174255c3.4760742 7.876526 3.6690674 16.80661 0.5366211 24.825745l0 0c-6.5230713 16.699005 -25.397583 24.969421 -42.15747 18.472443l0 0c-16.759888 -6.4969482 -25.058502 -25.300995 -18.535461 -42.0z" fill-rule="evenodd"/><path stroke="#fffff1" stroke-width="3.0" stroke-linejoin="round" stroke-linecap="butt" d="m498.50317 412.61026l0 0c6.5230713 -16.699005 25.397583 -24.96939 42.15747 -18.472443l0 0c8.048401 3.1199646 14.522766 9.2977295 17.99884 17.174255c3.4760742 7.876526 3.6690674 16.80661 0.5366211 24.825745l0 0c-6.5230713 16.699005 -25.397583 24.969421 -42.15747 18.472443l0 0c-16.759888 -6.4969482 -25.058502 -25.300995 -18.535461 -42.0z" fill-rule="evenodd"/><path fill="#743271" d="m558.97626 436.2419l0 0c6.5230103 -16.699005 25.397583 -24.96939 42.15747 -18.472443l0 0c8.04834 3.1199646 14.522705 9.297699 17.99878 17.174225c3.4760742 7.8765564 3.6691284 16.80664 0.5366211 24.825775l0 0c-6.5230103 16.699005 -25.397583 24.96939 -42.15747 18.472443l0 0c-16.759888 -6.4969482 -25.058472 -25.300995 -18.5354 -42.0z" fill-rule="evenodd"/><path stroke="#fffff1" stroke-width="3.0" stroke-linejoin="round" stroke-linecap="butt" d="m558.97626 436.2419l0 0c6.5230103 -16.699005 25.397583 -24.96939 42.15747 -18.472443l0 0c8.04834 3.1199646 14.522705 9.297699 17.99878 17.174225c3.4760742 7.8765564 3.6691284 16.80664 0.5366211 24.825775l0 0c-6.5230103 16.699005 -25.397583 24.96939 -42.15747 18.472443l0 0c-16.759888 -6.4969482 -25.058472 -25.300995 -18.5354 -42.0z" fill-rule="evenodd"/><path fill="#743271" d="m557.40466 505.3531l0 0c6.5230713 -16.699005 25.397583 -24.96939 42.15747 -18.472443l0 0c8.048401 3.1199646 14.522766 9.297699 17.99884 17.174225c3.4760742 7.876526 3.6690674 16.80664 0.5366211 24.825806l0 0c-6.5230713 16.698975 -25.397583 24.96936 -42.15747 18.472412l0 0c-16.759888 -6.4969482 -25.058533 -25.300964 -18.535461 -42.0z" fill-rule="evenodd"/><path stroke="#fffff1" stroke-width="3.0" stroke-linejoin="round" stroke-linecap="butt" d="m557.40466 505.3531l0 0c6.5230713 -16.699005 25.397583 -24.96939 42.15747 -18.472443l0 0c8.048401 3.1199646 14.522766 9.297699 17.99884 17.174225c3.4760742 7.876526 3.6690674 16.80664 0.5366211 24.825806l0 0c-6.5230713 16.698975 -25.397583 24.96936 -42.15747 18.472412l0 0c-16.759888 -6.4969482 -25.058533 -25.300964 -18.535461 -42.0z" fill-rule="evenodd"/><path fill="#743271" d="m505.84818 469.39178l0 0c6.523041 -16.699005 25.397614 -24.969421 42.1575 -18.472443l0 0c8.04834 3.119934 14.522766 9.297699 17.99878 17.174225c3.4760742 7.876526 3.6691284 16.80661 0.5366211 24.825775l0 0c-6.5230103 16.699005 -25.397583 24.96939 -42.15747 18.472443l0 0c-16.759888 -6.4969788 -25.058472 -25.301025 -18.53543 -42.0z" fill-rule="evenodd"/><path stroke="#fffff1" stroke-width="3.0" stroke-linejoin="round" stroke-linecap="butt" d="m505.84818 469.39178l0 0c6.523041 -16.699005 25.397614 -24.969421 42.1575 -18.472443l0 0c8.04834 3.119934 14.522766 9.297699 17.99878 17.174225c3.4760742 7.876526 3.6691284 16.80661 0.5366211 24.825775l0 0c-6.5230103 16.699005 -25.397583 24.96939 -42.15747 18.472443l0 0c-16.759888 -6.4969788 -25.058472 -25.301025 -18.53543 -42.0z" fill-rule="evenodd"/><path fill="#743271" d="m451.47604 463.9583l0 0c6.5230713 -16.699005 25.397614 -24.96939 42.1575 -18.472443l0 0c8.04837 3.1199646 14.522736 9.2977295 17.99881 17.174255c3.4760437 7.876526 3.669098 16.80661 0.5365906 24.825745l0 0c-6.5230103 16.699005 -25.397583 24.96939 -42.15747 18.472443l0 0c-16.759857 -6.4969482 -25.058472 -25.300995 -18.53543 -42.0z" fill-rule="evenodd"/><path stroke="#fffff1" stroke-width="3.0" stroke-linejoin="round" stroke-linecap="butt" d="m451.47604 463.9583l0 0c6.5230713 -16.699005 25.397614 -24.96939 42.1575 -18.472443l0 0c8.04837 3.1199646 14.522736 9.2977295 17.99881 17.174255c3.4760437 7.876526 3.669098 16.80661 0.5365906 24.825745l0 0c-6.5230103 16.699005 -25.397583 24.96939 -42.15747 18.472443l0 0c-16.759857 -6.4969482 -25.058472 -25.300995 -18.53543 -42.0z" fill-rule="evenodd"/><path fill="#743271" d="m458.86826 513.7954l0 0c6.523041 -16.699005 25.397583 -24.96939 42.15747 -18.472443l0 0c8.04837 3.1199646 14.522736 9.2977295 17.99881 17.174225c3.4760742 7.876526 3.6691284 16.80664 0.5366211 24.825806l0 0c-6.5230713 16.698975 -25.397583 24.96936 -42.15747 18.472412l0 0c-16.759888 -6.4969482 -25.058472 -25.300964 -18.53543 -42.0z" fill-rule="evenodd"/><path stroke="#fffff1" stroke-width="3.0" stroke-linejoin="round" stroke-linecap="butt" d="m458.86826 513.7954l0 0c6.523041 -16.699005 25.397583 -24.96939 42.15747 -18.472443l0 0c8.04837 3.1199646 14.522736 9.2977295 17.99881 17.174225c3.4760742 7.876526 3.6691284 16.80664 0.5366211 24.825806l0 0c-6.5230713 16.698975 -25.397583 24.96936 -42.15747 18.472412l0 0c-16.759888 -6.4969482 -25.058472 -25.300964 -18.53543 -42.0z" fill-rule="evenodd"/><path fill="#743271" d="m507.37585 539.71405l0 0c6.5230713 -16.698975 25.397583 -24.96936 42.15747 -18.472412l0 0c8.048401 3.119934 14.522766 9.297668 17.99884 17.174194c3.4760742 7.876526 3.6690674 16.80664 0.5366211 24.825806l0 0c-6.5230713 16.698975 -25.397583 24.96936 -42.15747 18.472412l0 0c-16.759918 -6.4969482 -25.058502 -25.300964 -18.535461 -42.0z" fill-rule="evenodd"/><path stroke="#fffff1" stroke-width="3.0" stroke-linejoin="round" stroke-linecap="butt" d="m507.37585 539.71405l0 0c6.5230713 -16.698975 25.397583 -24.96936 42.15747 -18.472412l0 0c8.048401 3.119934 14.522766 9.297668 17.99884 17.174194c3.4760742 7.876526 3.6690674 16.80664 0.5366211 24.825806l0 0c-6.5230713 16.698975 -25.397583 24.96936 -42.15747 18.472412l0 0c-16.759918 -6.4969482 -25.058502 -25.300964 -18.535461 -42.0z" fill-rule="evenodd"/><path fill="#743271" d="m462.93204 568.51996l0 0c6.523041 -16.698975 25.397583 -24.969421 42.15747 -18.472412l0 0c8.04837 3.119934 14.522736 9.297668 17.99881 17.174194c3.4760742 7.876526 3.6691284 16.80664 0.5366211 24.825806l0 0c-6.5230713 16.698975 -25.397583 24.96936 -42.15747 18.472412l0 0c-16.759888 -6.4969482 -25.058472 -25.300964 -18.53543 -42.0z" fill-rule="evenodd"/><path stroke="#fffff1" stroke-width="3.0" stroke-linejoin="round" stroke-linecap="butt" d="m462.93204 568.51996l0 0c6.523041 -16.698975 25.397583 -24.969421 42.15747 -18.472412l0 0c8.04837 3.119934 14.522736 9.297668 17.99881 17.174194c3.4760742 7.876526 3.6691284 16.80664 0.5366211 24.825806l0 0c-6.5230713 16.698975 -25.397583 24.96936 -42.15747 18.472412l0 0c-16.759888 -6.4969482 -25.058472 -25.300964 -18.53543 -42.0z" fill-rule="evenodd"/><path fill="#743271" d="m441.64514 395.1511l0 0c6.523041 -16.699005 25.397583 -24.96939 42.15747 -18.472443l0 0c8.04837 3.119934 14.522766 9.297699 17.99881 17.174225c3.4760742 7.876526 3.669098 16.80661 0.5366211 24.825775l0 0c-6.523041 16.699005 -25.397583 24.96939 -42.15747 18.472443l0 0c-16.759888 -6.4969788 -25.058472 -25.300995 -18.53543 -42.0z" fill-rule="evenodd"/><path stroke="#fffff1" stroke-width="3.0" stroke-linejoin="round" stroke-linecap="butt" d="m441.64514 395.1511l0 0c6.523041 -16.699005 25.397583 -24.96939 42.15747 -18.472443l0 0c8.04837 3.119934 14.522766 9.297699 17.99881 17.174225c3.4760742 7.876526 3.669098 16.80661 0.5366211 24.825775l0 0c-6.523041 16.699005 -25.397583 24.96939 -42.15747 18.472443l0 0c-16.759888 -6.4969788 -25.058472 -25.300995 -18.53543 -42.0z" fill-rule="evenodd"/><path fill="#ffffff" d="m-398.72498 563.3002l1174.6143 671.3071l-160.12604 277.92126l-1174.6141 -671.3071z" fill-rule="evenodd"/><path fill="#ffffff" d="m140.85745 1230.7948l1170.6143 -678.36224l161.6377 277.00787l-1170.6141 678.3622z" fill-rule="evenodd"/><path fill="#ffffff" d="m538.7367 -50.595013l-1170.6141 678.36224l-161.63782 -277.0079l1170.6143 -678.3622z" fill-rule="evenodd"/><path fill="#ffffff" d="m1102.0388 373.88022l-1174.6141 -671.30707l160.12598 -277.9213l1174.6141 671.3071z" fill-rule="evenodd"/><path fill="#000000" fill-opacity="0.0" d="m452.92126 5.6456695l449.59033 259.43173l0 523.56177l-449.59033 259.43176l-449.59033 -259.43176l0 -523.56177z" fill-rule="evenodd"/><path stroke="#0f3149" stroke-width="8.0" stroke-linejoin="round" stroke-linecap="butt" d="m452.92126 5.6456695l449.59033 259.43173l0 523.56177l-449.59033 259.43176l-449.59033 -259.43176l0 -523.56177z" fill-rule="evenodd"/></g></svg>