<svg version="1.1" viewBox="0.0 0.0 907.0866141732283 1050.708661417323" fill="none" stroke="none" stroke-linecap="square" stroke-miterlimit="10" xmlns:xlink="http://www.w3.org/1999/xlink" xmlns="http://www.w3.org/2000/svg"><clipPath id="p.0"><path d="m0 0l907.0866 0l0 1050.7086l-907.0866 0l0 -1050.7086z" clip-rule="nonzero"/></clipPath><g clip-path="url(#p.0)"><path fill="#ffffff" d="m0 0l907.0866 0l0 1050.7086l-907.0866 0z" fill-rule="evenodd"/><path fill="#fffff1" d="m-43.681675 5.4702783l1028.4409 0l0 1016.18896l-1028.4409 0z" fill-rule="evenodd"/><path fill="#0097a7" d="m-24.451199 513.5805l989.95276 0l0 54.740112l-989.95276 0z" fill-rule="evenodd"/><path fill="#0097a7" d="m-24.451199 608.9002l989.95276 0l0 54.740173l-989.95276 0z" fill-rule="evenodd"/><path fill="#0097a7" d="m-24.451199 704.2199l989.95276 0l0 54.740173l-989.95276 0z" fill-rule="evenodd"/><path fill="#0097a7" d="m-8.451199 799.5397l989.9381 0l0 54.73523l-989.9381 0z" fill-rule="evenodd"/><path fill="#0097a7" d="m-8.451444 894.9334l989.95276 0l0 54.70868l-989.95276 0z" fill-rule="evenodd"/><path fill="#fffff1" d="m816.534 419.4184l106.704895 80.47705c-11.786255 -8.889252 -81.19122 29.042542 -155.02032 84.72308c-73.82904 55.68048 -124.12463 108.02466 -112.33832 116.91388l-106.704956 -80.47705l0 0c-11.786316 -8.889221 38.509277 -61.2334 112.33838 -116.91388c73.82904 -55.680542 143.23401 -93.612335 155.02032 -84.72308z" fill-rule="evenodd"/><path fill="#fffff1" d="m127.8728 417.96216l-107.00516 80.69867c11.819462 -8.913727 81.6586 29.304749 155.99008 85.36334c74.33147 56.058655 125.00748 108.729126 113.18802 117.64282l107.00516 -80.69861l0 0c11.819458 -8.913757 -38.856537 -61.58423 -113.18802 -117.64285c-74.33148 -56.058594 -144.17061 -94.2771 -155.99008 -85.36337z" fill-rule="evenodd"/><path fill="#fffff1" d="m287.56177 513.5805l375.46454 0l0 150.07874l-375.46454 0z" fill-rule="evenodd"/><path fill="#f49231" d="m531.21674 652.9973l-398.83463 -256.26324l0 -69.17435l398.83463 -256.2632z" fill-rule="evenodd"/><path fill="#fffff1" d="m460.67755 639.68756l51.338562 0l0 309.95276l-51.338562 0z" fill-rule="evenodd"/><path fill="#f49231" d="m79.76965 349.0074l0 0c0 -55.12967 44.855568 -99.821106 100.18771 -99.821106l0 0c26.571442 0 52.05458 10.516815 70.843414 29.236908c18.788849 18.720093 29.3443 44.109985 29.3443 70.5842l0 0c0 55.12967 -44.85556 99.821106 -100.18771 99.821106l0 0c-55.332146 0 -100.18771 -44.691437 -100.18771 -99.821106z" fill-rule="evenodd"/><path stroke="#fffff1" stroke-width="8.0" stroke-linejoin="round" stroke-linecap="butt" d="m79.76965 349.0074l0 0c0 -55.12967 44.855568 -99.821106 100.18771 -99.821106l0 0c26.571442 0 52.05458 10.516815 70.843414 29.236908c18.788849 18.720093 29.3443 44.109985 29.3443 70.5842l0 0c0 55.12967 -44.85556 99.821106 -100.18771 99.821106l0 0c-55.332146 0 -100.18771 -44.691437 -100.18771 -99.821106z" fill-rule="evenodd"/><path fill="#fffff1" d="m578.35736 244.65944l-301.19882 86.32823l-19.36618 -47.743073l276.565 -147.0576z" fill-rule="evenodd"/><path fill="#fffff1" d="m604.0945 442.2113l-327.15753 -57.01645l2.1575928 -37.778137l331.55115 -19.914062z" fill-rule="evenodd"/><path fill="#fffff1" d="m618.23615 671.7983l-373.7763 -241.01633l10.859726 -19.920135l405.68823 182.47974z" fill-rule="evenodd"/><path fill="#743271" d="m446.49725 578.916l0 0c8.601746 -22.030518 33.497528 -32.944885 55.606293 -24.37799l0 0c10.617035 4.1140137 19.158295 12.262146 23.744781 22.651978c4.586548 10.389832 4.8425903 22.170166 0.71191406 32.749634l0 0c-8.601685 22.030518 -33.497498 32.944885 -55.606293 24.37793l0 0c-22.108765 -8.566956 -33.05841 -33.371033 -24.456696 -55.40155z" fill-rule="evenodd"/><path stroke="#0097a7" stroke-width="8.0" stroke-linejoin="round" stroke-linecap="butt" d="m446.49725 578.916l0 0c8.601746 -22.030518 33.497528 -32.944885 55.606293 -24.37799l0 0c10.617035 4.1140137 19.158295 12.262146 23.744781 22.651978c4.586548 10.389832 4.8425903 22.170166 0.71191406 32.749634l0 0c-8.601685 22.030518 -33.497498 32.944885 -55.606293 24.37793l0 0c-22.108765 -8.566956 -33.05841 -33.371033 -24.456696 -55.40155z" fill-rule="evenodd"/><path fill="#ffffff" d="m-398.72498 551.0692l1174.6143 671.3071l-160.12604 277.92114l-1174.6141 -671.307z" fill-rule="evenodd"/><path fill="#ffffff" d="m141.67897 1223.2882l1170.6141 -678.36224l161.63782 277.00787l-1170.6141 678.3622z" fill-rule="evenodd"/><path fill="#ffffff" d="m538.7367 -50.595013l-1170.6141 678.36224l-161.63782 -277.0079l1170.6143 -678.3622z" fill-rule="evenodd"/><path fill="#ffffff" d="m1102.0388 373.88022l-1174.6141 -671.30707l160.12598 -277.9213l1174.6141 671.3071z" fill-rule="evenodd"/><path fill="#743271" d="m420.64688 506.71652l0 0c8.601715 -22.030518 33.497498 -32.944885 55.606293 -24.37796l0 0c10.617004 4.113983 19.158264 12.262146 23.744781 22.651947c4.5865173 10.389801 4.8425903 22.170197 0.71191406 32.749664l0 0c-8.601746 22.030457 -33.497528 32.944885 -55.606323 24.37793l0 0c-22.108765 -8.566956 -33.05841 -33.371094 -24.456665 -55.40158z" fill-rule="evenodd"/><path stroke="#0097a7" stroke-width="8.0" stroke-linejoin="round" stroke-linecap="butt" d="m420.64688 506.71652l0 0c8.601715 -22.030518 33.497498 -32.944885 55.606293 -24.37796l0 0c10.617004 4.113983 19.158264 12.262146 23.744781 22.651947c4.5865173 10.389801 4.8425903 22.170197 0.71191406 32.749664l0 0c-8.601746 22.030457 -33.497528 32.944885 -55.606323 24.37793l0 0c-22.108765 -8.566956 -33.05841 -33.371094 -24.456665 -55.40158z" fill-rule="evenodd"/><path fill="#743271" d="m500.15082 520.916l0 0c8.601715 -22.030518 33.497498 -32.944916 55.606262 -24.37796l0 0c10.617065 4.113983 19.158264 12.2621155 23.744812 22.651947c4.586548 10.389832 4.8425903 22.170166 0.71191406 32.749634l0 0c-8.601746 22.030518 -33.497498 32.944885 -55.606323 24.37793l0 0c-22.108765 -8.566956 -33.05841 -33.371033 -24.456665 -55.40155z" fill-rule="evenodd"/><path stroke="#0097a7" stroke-width="8.0" stroke-linejoin="round" stroke-linecap="butt" d="m500.15082 520.916l0 0c8.601715 -22.030518 33.497498 -32.944916 55.606262 -24.37796l0 0c10.617065 4.113983 19.158264 12.2621155 23.744812 22.651947c4.586548 10.389832 4.8425903 22.170166 0.71191406 32.749634l0 0c-8.601746 22.030518 -33.497498 32.944885 -55.606323 24.37793l0 0c-22.108765 -8.566956 -33.05841 -33.371033 -24.456665 -55.40155z" fill-rule="evenodd"/><path fill="#743271" d="m402.66263 423.64435l0 0c8.601715 -22.030518 33.497498 -32.944885 55.606293 -24.37796l0 0c10.617004 4.113983 19.158264 12.262146 23.744781 22.651947c4.5865173 10.389832 4.8425903 22.170197 0.71191406 32.749634l0 0c-8.601746 22.030518 -33.497528 32.944885 -55.606293 24.37796l0 0c-22.108795 -8.566956 -33.05844 -33.371063 -24.456696 -55.40158z" fill-rule="evenodd"/><path stroke="#0097a7" stroke-width="8.0" stroke-linejoin="round" stroke-linecap="butt" d="m402.66263 423.64435l0 0c8.601715 -22.030518 33.497498 -32.944885 55.606293 -24.37796l0 0c10.617004 4.113983 19.158264 12.262146 23.744781 22.651947c4.5865173 10.389832 4.8425903 22.170197 0.71191406 32.749634l0 0c-8.601746 22.030518 -33.497528 32.944885 -55.606293 24.37796l0 0c-22.108795 -8.566956 -33.05844 -33.371063 -24.456696 -55.40158z" fill-rule="evenodd"/><path fill="#743271" d="m531.85944 436.69815l0 0c8.601746 -22.030518 33.49756 -32.944885 55.606323 -24.37796l0 0c10.617004 4.113983 19.158264 12.262146 23.744812 22.651947c4.586487 10.389832 4.8425903 22.170227 0.71191406 32.749634l0 0c-8.601746 22.030518 -33.49756 32.944885 -55.606323 24.37796l0 0c-22.108765 -8.566956 -33.05841 -33.371063 -24.456726 -55.40158z" fill-rule="evenodd"/><path stroke="#0097a7" stroke-width="8.0" stroke-linejoin="round" stroke-linecap="butt" d="m531.85944 436.69815l0 0c8.601746 -22.030518 33.49756 -32.944885 55.606323 -24.37796l0 0c10.617004 4.113983 19.158264 12.262146 23.744812 22.651947c4.586487 10.389832 4.8425903 22.170227 0.71191406 32.749634l0 0c-8.601746 22.030518 -33.49756 32.944885 -55.606323 24.37796l0 0c-22.108765 -8.566956 -33.05841 -33.371063 -24.456726 -55.40158z" fill-rule="evenodd"/><path fill="#743271" d="m470.0563 444.69815l0 0c8.601746 -22.030518 33.497528 -32.944885 55.606293 -24.37796l0 0c10.617004 4.113983 19.158264 12.262146 23.744812 22.651947c4.586487 10.389832 4.8425903 22.170227 0.71191406 32.749634l0 0c-8.601746 22.030518 -33.49756 32.944885 -55.606323 24.37796l0 0c-22.108765 -8.566956 -33.05841 -33.371063 -24.456696 -55.40158z" fill-rule="evenodd"/><path stroke="#0097a7" stroke-width="8.0" stroke-linejoin="round" stroke-linecap="butt" d="m470.0563 444.69815l0 0c8.601746 -22.030518 33.497528 -32.944885 55.606293 -24.37796l0 0c10.617004 4.113983 19.158264 12.262146 23.744812 22.651947c4.586487 10.389832 4.8425903 22.170227 0.71191406 32.749634l0 0c-8.601746 22.030518 -33.49756 32.944885 -55.606323 24.37796l0 0c-22.108765 -8.566956 -33.05841 -33.371063 -24.456696 -55.40158z" fill-rule="evenodd"/><path fill="#743271" d="m513.87524 374.57742l0 0c8.601685 -22.030518 33.497498 -32.944885 55.606262 -24.37796l0 0c10.617004 4.113983 19.158264 12.262146 23.744812 22.651947c4.586487 10.389801 4.8425903 22.170197 0.71191406 32.749634l0 0c-8.601746 22.030518 -33.49756 32.944885 -55.606323 24.37796l0 0c-22.108765 -8.566956 -33.05841 -33.371094 -24.456665 -55.40158z" fill-rule="evenodd"/><path stroke="#0097a7" stroke-width="8.0" stroke-linejoin="round" stroke-linecap="butt" d="m513.87524 374.57742l0 0c8.601685 -22.030518 33.497498 -32.944885 55.606262 -24.37796l0 0c10.617004 4.113983 19.158264 12.262146 23.744812 22.651947c4.586487 10.389801 4.8425903 22.170197 0.71191406 32.749634l0 0c-8.601746 22.030518 -33.49756 32.944885 -55.606323 24.37796l0 0c-22.108765 -8.566956 -33.05841 -33.371094 -24.456665 -55.40158z" fill-rule="evenodd"/><path fill="#743271" d="m443.10092 362.25458l0 0c8.601746 -22.030518 33.497528 -32.944885 55.606323 -24.37796l0 0c10.617004 4.1140137 19.158234 12.262146 23.744781 22.651947c4.586487 10.389832 4.8425903 22.170227 0.71191406 32.749634l0 0c-8.601746 22.030518 -33.497528 32.944885 -55.606323 24.37796l0 0c-22.108765 -8.566925 -33.05841 -33.371063 -24.456696 -55.40158z" fill-rule="evenodd"/><path stroke="#0097a7" stroke-width="8.0" stroke-linejoin="round" stroke-linecap="butt" d="m443.10092 362.25458l0 0c8.601746 -22.030518 33.497528 -32.944885 55.606323 -24.37796l0 0c10.617004 4.1140137 19.158234 12.262146 23.744781 22.651947c4.586487 10.389832 4.8425903 22.170227 0.71191406 32.749634l0 0c-8.601746 22.030518 -33.497528 32.944885 -55.606323 24.37796l0 0c-22.108765 -8.566925 -33.05841 -33.371063 -24.456696 -55.40158z" fill-rule="evenodd"/><path fill="#000000" fill-opacity="0.0" d="m525.2132 357.5942c0 -44.897644 23.787354 -67.346466 47.574768 -89.79529c23.787415 -22.448822 47.57483 -44.897644 47.57483 -89.79527" fill-rule="evenodd"/><path stroke="#0097a7" stroke-width="8.0" stroke-linejoin="round" stroke-linecap="butt" d="m525.2132 357.5942c0 -44.897644 23.787354 -67.346466 47.574768 -89.79529c23.787415 -22.448822 47.57483 -44.897644 47.57483 -89.79527" fill-rule="evenodd"/><path fill="#000000" fill-opacity="0.0" d="m568.1616 36.920437l350.96063 208.8189l-126.42517 212.47243l-350.96063 -208.81888z" fill-rule="evenodd"/><path fill="#743271" d="m599.39307 113.44255l-5.5195923 7.443001l-14.40387 -5.9520416l-33.21277 77.14654l-9.825989 21.280548l19.682068 -15.41626l75.05408 -52.25125l-12.089355 -9.811249l5.3585205 -7.538864l38.92743 23.161545l-6.0029907 7.1553802l-12.199829 -4.8588257l-117.67554 80.491165l-19.742798 -11.31044l48.13434 -122.08584l-9.73761 -8.630135l5.5849 -7.1859894l47.669006 28.362717zm87.24463 51.909866q3.7061157 2.2051086 11.850952 6.1785126q9.756165 4.932129 15.248169 8.199844q36.67163 21.81932 20.428406 49.11792q-14.038025 23.592545 -46.112183 13.908539q7.974304 4.9628143 12.217957 11.978607q4.25708 7.023773 4.373047 14.529083q0.12945557 7.513275 -3.8095093 14.133179q-12.430725 21.257996 -32.74176 22.300201q-20.310974 1.0421753 -47.44879 -15.104584q-5.169739 -3.0759583 -11.968262 -8.211945q-7.6866455 -5.4461975 -10.922791 -7.3716736l-21.48468 -12.783203l5.0629272 -7.042053l12.656555 4.4578857l72.88757 -92.703476l-9.994629 -8.56488l5.5196533 -7.442993l24.237366 14.421036zm-29.279724 54.341537q2.6568604 1.7989807 4.718994 2.9168396q2.0755615 1.1258545 3.5257568 1.9887238l4.3640747 2.5965881q11.62854 6.9188995 23.010437 5.0547943q11.40332 -1.8695526 19.089478 -14.787048q11.537231 -19.389648 -8.980591 -31.59761q-8.567017 -5.0973053 -13.66748 -6.8229675l-32.06067 40.65068zm-41.806946 52.996964q2.2599487 2.4355164 6.578064 5.6593018q4.318115 3.223816 7.2319946 4.9575195q14.045593 8.357025 25.619263 6.1706543q11.587097 -2.1783752 20.048218 -16.398376q6.631531 -11.14502 4.069763 -19.887344q-2.5618286 -8.74234 -15.157166 -16.23648q-8.567017 -5.0973053 -13.928528 -7.850998l-34.46161 43.585724zm213.5069 -8.817902q-3.505188 -5.140045 -10.125122 -9.078873q-12.7699585 -7.5980225 -26.898499 -3.5318298q-14.107117 4.0607605 -26.546814 15.586258q-12.439758 11.525513 -20.578613 25.937225q-23.51117 42.446716 0.24279785 56.58014q5.169739 3.0759583 11.234985 4.8302307q6.0653076 1.754242 11.836853 0.15197754q5.0789185 -2.6688843 15.521851 -12.855255l13.253357 7.8856506l-17.427307 21.55777q-21.500244 1.207367 -44.770752 -12.638428q-16.153809 -9.611389 -22.266663 -22.866577q-6.1049194 -13.268616 -3.8242188 -27.76593q2.2807617 -14.497345 10.837769 -28.878448q12.879517 -21.645508 30.78778 -32.644516q17.929688 -11.00444 38.044983 -10.617676q20.123291 0.37335205 39.513184 11.910187q9.211548 5.4808044 14.143616 9.506241q4.932007 4.025421 7.7939453 6.9464417q2.869934 2.9075623 3.9672852 3.9968262l2.4210205 2.5314026l-23.11206 27.811584l-15.831482 -9.419617l11.7821045 -24.934784z" fill-rule="nonzero"/><path fill="#000000" fill-opacity="0.0" d="m593.30707 251.02362c15.86615 0 23.799255 14.519684 31.7323 29.039368c7.9330444 14.519684 15.86615 29.039368 31.7323 29.039368" fill-rule="evenodd"/><path stroke="#0097a7" stroke-width="8.0" stroke-linejoin="round" stroke-linecap="butt" d="m593.30707 251.02362c15.86615 0 23.799255 14.519684 31.7323 29.039368c7.9330444 14.519684 15.86615 29.039368 31.7323 29.039368" fill-rule="evenodd"/><path fill="#0097a7" d="m664.4019 343.39325l0 0c10.741333 3.8616333 23.918945 -5.416992 29.433105 -20.724396q6.900696 -19.156586 21.23706 -35.639893q-17.2594 5.7638855 -30.70166 0.9312134l0 0c-10.741272 -3.8616333 -23.918884 5.416992 -29.433044 20.724426l0 0c-5.51416 15.307404 -1.2767334 30.847015 9.464539 34.70865z" fill-rule="evenodd"/><path fill="#0097a7" d="m669.4878 339.21518l0 0c-2.0526123 10.028107 -19.383057 14.9635315 -38.70868 11.023621q-21.185669 -4.3191223 -43.15503 -4.809204q9.629272 -9.488861 11.879456 -20.482147l0 0c2.0525513 -10.028076 19.382996 -14.9635315 38.70862 -11.023621l0 0c19.325623 3.9399414 33.328186 15.263245 31.275635 25.291351z" fill-rule="evenodd"/><path fill="#0097a7" d="m687.46655 329.25006l0 0c18.995117 10.071594 28.534607 29.277527 21.307068 42.897644q-8.402466 15.8342285 -7.032593 36.849915q-18.364746 -18.715881 -40.447693 -30.424713l0 0c-18.995117 -10.071594 -28.534668 -29.277527 -21.307129 -42.897644l0 0c7.227539 -13.620117 28.48523 -16.496796 47.480347 -6.4252014z" fill-rule="evenodd"/><path fill="#0097a7" d="m646.98364 335.03256l0 0c8.610474 5.244507 9.661011 19.218872 2.3464966 31.212585q-8.1519165 13.36673 -12.702026 28.927277q-6.536499 -10.861877 -16.13263 -16.706818l0 0c-8.610413 -5.244507 -9.66095 -19.218872 -2.3464966 -31.212585l0 0c7.314514 -11.993713 20.224243 -17.464996 28.834656 -12.220459z" fill-rule="evenodd"/><path fill="#0097a7" d="m682.5297 320.8283l0 0c-1.8699951 10.723907 8.769409 21.532532 23.763733 24.141754q16.710876 2.907898 32.639526 10.301605q-4.1881104 -13.042969 -2.104065 -24.994537l0 0c1.8699341 -10.723877 -8.76947 -21.532501 -23.763794 -24.141724l0 0c-14.994324 -2.6092224 -28.665466 3.9690247 -30.5354 14.692902z" fill-rule="evenodd"/><path fill="#0097a7" d="m649.60376 319.52716l0 0c-4.287781 -9.462769 2.0013428 -21.554626 14.047241 -27.007874l0 0c12.045898 -5.4532776 25.286987 -2.202942 29.57483 7.2598267l0 0c4.287781 9.462769 -2.0013428 21.554596 -14.047241 27.007874l0 0c-12.045898 5.4532776 -25.286987 2.202942 -29.57483 -7.2598267z" fill-rule="evenodd"/><path fill="#0097a7" d="m603.0236 339.25424l0 0c-3.2180176 -7.105774 7.435486 -18.873291 23.795288 -26.283478l0 0c16.359802 -7.410187 32.230774 -7.656952 35.44879 -0.551178l0 0c3.2180786 7.105774 -7.435486 18.873291 -23.795288 26.283478l0 0c-16.359802 7.4101562 -32.230774 7.656952 -35.44879 0.551178z" fill-rule="evenodd"/><path fill="#000000" fill-opacity="0.0" d="m470.95395 634.31757c0 25.874084 8.509644 31.091492 16.469208 51.74823c7.9595947 20.656677 15.36911 56.752686 16.469208 90.9834c1.1001282 34.230774 -4.1091614 66.59625 -8.768402 90.98346c-4.6592407 24.387146 -8.768433 40.79602 -8.768433 81.59198" fill-rule="evenodd"/><path stroke="#0097a7" stroke-width="12.0" stroke-linejoin="round" stroke-linecap="butt" d="m470.95395 634.31757c0 25.874084 8.509644 31.091492 16.469208 51.74823c7.9595947 20.656677 15.36911 56.752686 16.469208 90.9834c1.1001282 34.230774 -4.1091614 66.59625 -8.768402 90.98346c-4.6592407 24.387146 -8.768433 40.79602 -8.768433 81.59198" fill-rule="evenodd"/><path fill="#000000" fill-opacity="0.0" d="m452.92126 9.152231l449.59033 259.43173l0 510.71133l-449.59033 259.43176l-449.59033 -259.43176l0 -510.71133z" fill-rule="evenodd"/><path stroke="#0097a7" stroke-width="16.0" stroke-linejoin="round" stroke-linecap="butt" d="m452.92126 9.152231l449.59033 259.43173l0 510.71133l-449.59033 259.43176l-449.59033 -259.43176l0 -510.71133z" fill-rule="evenodd"/></g></svg>